<svg xmlns="http://www.w3.org/2000/svg"
     viewBox="0 0 700 650"
     fill="none">

    <!-- ======================================================
         LEGS
    ======================================================= -->

    <rect x="190"
          y="470"
          width="18"
          height="150"
          rx="9"
          fill="#6C737A"/>

    <rect x="492"
          y="470"
          width="18"
          height="150"
          rx="9"
          fill="#6C737A"/>

    <!-- Cross Braces -->

    <path d="M208 575L492 520"
          stroke="#8B9298"
          stroke-width="8"/>

    <path d="M208 520L492 575"
          stroke="#8B9298"
          stroke-width="8"/>

    <!-- ======================================================
         SHADOW
    ======================================================= -->

    <rect x="115"
          y="58"
          width="470"
          height="390"
          rx="38"
          fill="#000"
          opacity=".08"/>

    <!-- ======================================================
         CHROME FRAME
    ======================================================= -->

    <rect x="100"
          y="40"
          width="500"
          height="400"
          rx="38"
          fill="#D8DDE3"
          stroke="#7B8794"
          stroke-width="8"/>

    <!-- ======================================================
         INNER PANEL
    ======================================================= -->

    <rect x="126"
          y="66"
          width="448"
          height="348"
          rx="24"
          fill="#F7F3EA"/>

    <!-- ======================================================
         MARQUEE BULBS
    ======================================================= -->

    <g fill="#FFD35C">

        <!-- Top -->
        <circle cx="145" cy="58" r="6"/>
        <circle cx="185" cy="58" r="6"/>
        <circle cx="225" cy="58" r="6"/>
        <circle cx="265" cy="58" r="6"/>
        <circle cx="305" cy="58" r="6"/>
        <circle cx="345" cy="58" r="6"/>
        <circle cx="385" cy="58" r="6"/>
        <circle cx="425" cy="58" r="6"/>
        <circle cx="465" cy="58" r="6"/>
        <circle cx="505" cy="58" r="6"/>
        <circle cx="545" cy="58" r="6"/>

        <!-- Bottom -->
        <circle cx="145" cy="422" r="6"/>
        <circle cx="185" cy="422" r="6"/>
        <circle cx="225" cy="422" r="6"/>
        <circle cx="265" cy="422" r="6"/>
        <circle cx="305" cy="422" r="6"/>
        <circle cx="345" cy="422" r="6"/>
        <circle cx="385" cy="422" r="6"/>
        <circle cx="425" cy="422" r="6"/>
        <circle cx="465" cy="422" r="6"/>
        <circle cx="505" cy="422" r="6"/>
        <circle cx="545" cy="422" r="6"/>

        <!-- Left -->
        <circle cx="118" cy="95" r="6"/>
        <circle cx="118" cy="140" r="6"/>
        <circle cx="118" cy="185" r="6"/>
        <circle cx="118" cy="230" r="6"/>
        <circle cx="118" cy="275" r="6"/>
        <circle cx="118" cy="320" r="6"/>
        <circle cx="118" cy="365" r="6"/>

        <!-- Right -->
        <circle cx="582" cy="95" r="6"/>
        <circle cx="582" cy="140" r="6"/>
        <circle cx="582" cy="185" r="6"/>
        <circle cx="582" cy="230" r="6"/>
        <circle cx="582" cy="275" r="6"/>
        <circle cx="582" cy="320" r="6"/>
        <circle cx="582" cy="365" r="6"/>

    </g>

</svg>