<svg xmlns="http://www.w3.org/2000/svg"
     viewBox="0 0 420 220"
     fill="none">

    <!-- ======================================================
         Shadow
    ======================================================= -->

    <ellipse
        cx="210"
        cy="180"
        rx="110"
        ry="12"
        fill="#000"
        opacity=".10"/>

    <!-- ======================================================
         Rocket Exhaust
    ======================================================= -->

    <path
        d="M45 108
           C18 95 18 125 45 112
           C30 120 30 100 45 108Z"
        fill="#F46B45"/>

    <!-- ======================================================
         Main Body
    ======================================================= -->

    <path
        d="
        M70 110

        C70 75
         120 55
         205 55

        L285 55

        C340 55
         365 82
         365 110

        C365 138
         340 155
         275 155

        L135 155

        C92 155
         70 138
         70 110
        "

        fill="#F8F4EB"
        stroke="#203040"
        stroke-width="5"/>

    <!-- ======================================================
         Tail Fin
    ======================================================= -->

    <path
        d="
        M78 108
        L45 70
        L60 118
        L45 165
        Z"

        fill="#F46B45"
        stroke="#203040"
        stroke-width="5"/>

    <!-- ======================================================
         Bubble Windshield
    ======================================================= -->

    <path
        d="
        M150 62

        C165 20
          270 20
          300 62

        Z"

        fill="#9FD8FF"
        stroke="#203040"
        stroke-width="5"/>

    <!-- ======================================================
         Chrome Trim
    ======================================================= -->

    <path
        d="M112 90
           H315"

        stroke="#203040"
        stroke-width="3"
        opacity=".35"/>

    <!-- ======================================================
         Hover Pods
    ======================================================= -->

    <ellipse
        cx="145"
        cy="162"
        rx="24"
        ry="14"

        fill="#DDE6EC"
        stroke="#203040"
        stroke-width="5"/>

    <ellipse
        cx="290"
        cy="162"
        rx="24"
        ry="14"

        fill="#DDE6EC"
        stroke="#203040"
        stroke-width="5"/>

    <!-- ======================================================
         Rocket Nozzle
    ======================================================= -->

    <circle
        cx="60"
        cy="110"
        r="8"
        fill="#203040"/>

    <!-- ======================================================
         Nose Antenna
    ======================================================= -->

    <line
        x1="360"
        y1="85"
        x2="385"
        y2="60"

        stroke="#203040"
        stroke-width="4"/>

    <circle
        cx="387"
        cy="58"
        r="5"
        fill="#F46B45"/>

    <!-- ======================================================
         Front Chrome Bumper
    ======================================================= -->

    <path
        d="
        M355 118
        Q378 118 382 110
        Q378 102 355 102"

        stroke="#203040"
        stroke-width="5"/>

</svg>