<svg xmlns="http://www.w3.org/2000/svg" viewBox="0 0 1600 400" fill="none">

    <!-- Cloud 1 -->
    <g opacity="0.95">
        <ellipse cx="220" cy="115" rx="45" ry="28" fill="#FFFFFF"/>
        <ellipse cx="265" cy="90" rx="55" ry="40" fill="#FFFFFF"/>
        <ellipse cx="330" cy="110" rx="48" ry="32" fill="#FFFFFF"/>
        <ellipse cx="275" cy="125" rx="95" ry="34" fill="#FFFFFF"/>
    </g>

    <!-- Cloud 2 -->
    <g opacity="0.92">
        <ellipse cx="760" cy="70" rx="42" ry="24" fill="#FFFFFF"/>
        <ellipse cx="805" cy="52" rx="58" ry="36" fill="#FFFFFF"/>
        <ellipse cx="875" cy="72" rx="48" ry="30" fill="#FFFFFF"/>
        <ellipse cx="815" cy="88" rx="105" ry="32" fill="#FFFFFF"/>
    </g>

    <!-- Cloud 3 -->
    <g opacity="0.95">
        <ellipse cx="1325" cy="130" rx="52" ry="30" fill="#FFFFFF"/>
        <ellipse cx="1380" cy="102" rx="62" ry="40" fill="#FFFFFF"/>
        <ellipse cx="1450" cy="125" rx="52" ry="32" fill="#FFFFFF"/>
        <ellipse cx="1385" cy="145" rx="115" ry="36" fill="#FFFFFF"/>
    </g>

    <!-- Small Cloud -->
    <g opacity="0.85">
        <ellipse cx="1120" cy="250" rx="30" ry="18" fill="#FFFFFF"/>
        <ellipse cx="1150" cy="235" rx="38" ry="24" fill="#FFFFFF"/>
        <ellipse cx="1195" cy="248" rx="32" ry="20" fill="#FFFFFF"/>
        <ellipse cx="1158" cy="260" rx="70" ry="22" fill="#FFFFFF"/>
    </g>

</svg>