<svg xmlns="http://www.w3.org/2000/svg" viewBox="0 0 1600 260" fill="none">

    <!-- Left Observatory -->
    <path d="M60 220V170H95V220Z" fill="#203040"/>
    <circle cx="77.5" cy="160" r="18" fill="#203040"/>
    <rect x="73" y="130" width="9" height="18" fill="#203040"/>

    <!-- Tower -->
    <path d="M150 220V90H195V220Z" fill="#203040"/>
    <path d="M140 90H205L172 45Z" fill="#203040"/>

    <!-- Googie Building -->
    <path d="M250 220V150H360V220Z" fill="#203040"/>
    <path d="M230 150H380L340 130H270Z" fill="#203040"/>

    <!-- Needle Tower -->
    <rect x="470" y="95" width="18" height="125" fill="#203040"/>
    <ellipse cx="479" cy="90" rx="48" ry="14" fill="#203040"/>
    <rect x="476" y="40" width="6" height="50" fill="#203040"/>

    <!-- Dome -->
    <path d="M560 220V165H650V220Z" fill="#203040"/>
    <path d="M560 165C560 125 650 125 650 165Z" fill="#203040"/>

    <!-- Central Tower -->
    <rect x="710" y="60" width="55" height="160" fill="#203040"/>
    <rect x="700" y="45" width="75" height="18" fill="#203040"/>
    <rect x="732" y="20" width="10" height="25" fill="#203040"/>

    <!-- Monorail -->
    <rect x="815" y="122" width="250" height="8" fill="#203040"/>
    <rect x="860" y="110" width="60" height="20" rx="10" fill="#203040"/>

    <!-- Curved Building -->
    <path d="M1110 220V120
             C1160 90 1220 90 1270 120
             V220Z"
          fill="#203040"/>

    <!-- Rocket Pad -->
    <rect x="1325" y="170" width="18" height="50" fill="#203040"/>
    <path d="M1334 125
             C1318 140 1318 165 1334 170
             C1350 165 1350 140 1334 125Z"
          fill="#203040"/>

    <!-- Far Right Tower -->
    <rect x="1445" y="100" width="40" height="120" fill="#203040"/>
    <ellipse cx="1465" cy="95" rx="26" ry="10" fill="#203040"/>

</svg>